<svg width="174" height="40" viewBox="0 0 174 40" fill="none" xmlns="http://www.w3.org/2000/svg">
<g clip-path="url(#clip0_28856_27063)">
<path d="M151.949 10.3625H149.75V25.9201H151.949V10.3625Z" fill="black"/>
<path d="M53.2866 22.5749C53.2885 27.7924 42.5814 27.3908 42.8203 22.2442H45.0561C45.1442 24.395 47.9092 24.8485 49.6351 24.3366C50.9748 24.0321 51.6776 22.4847 50.3209 21.6812C48.5855 20.844 46.5534 21.0455 44.8075 20.2014C42.2359 19.2406 42.6886 15.5613 45.1238 14.5852C48.0725 13.4035 52.948 14.2816 52.9083 18.1054H50.7406C50.708 15.9568 48.0869 15.599 46.4407 16.0737C45.2384 16.4205 44.8344 18.0603 45.9764 18.5502C47.995 19.6435 53.2844 18.8795 53.2858 22.5754L53.2866 22.5749Z" fill="black"/>
<path d="M44.1529 22.2443H42.8203C43.2716 22.2443 43.7141 22.2429 44.1529 22.2443Z" fill="black"/>
<path d="M45.0781 22.4507C45.0999 22.5831 45.1301 22.7073 45.1667 22.8242C45.1306 22.7124 45.099 22.5868 45.0781 22.4507Z" fill="black"/>
<path d="M45.4062 23.3445C45.4141 23.3569 45.422 23.3693 45.4304 23.3817C45.4243 23.373 45.4164 23.3606 45.4062 23.3445Z" fill="black"/>
<path d="M41.0942 10.3625H38.8867V25.9013H41.0942V10.3625Z" fill="black"/>
<path d="M65.3636 14.4561H63.168V25.925H65.3636V14.4561Z" fill="black"/>
<path d="M65.3515 10.3625H63.1797V12.5161H65.3515V10.3625Z" fill="black"/>
<path d="M31.2215 10.3618H28.3215C26.5027 14.8976 23.9223 21.3289 22.0859 25.9203H24.5453C24.5453 25.918 24.5467 25.9157 24.5476 25.9134L24.549 25.9295C25.0518 24.6499 25.5778 22.0759 27.8632 21.9627C29.5381 21.9747 32.4794 22.2879 32.806 20.1509C32.806 20.1509 34.6855 24.9056 35.0853 25.9249H37.5947C37.5947 25.9249 33.267 15.353 31.2215 10.3618ZM32.1946 19.3009C31.4998 20.8979 28.2305 19.7816 26.7374 20.2958C27.7468 17.6395 28.7617 14.9638 29.7705 12.3052C30.573 14.3815 31.3731 16.4592 32.17 18.5383C32.2647 18.7811 32.2832 19.0562 32.1946 19.3004V19.3009Z" fill="black"/>
<path d="M61.4297 24.0773C60.3836 24.2995 58.5486 24.6775 58.2894 23.242C58.2499 23.0299 58.2286 22.8115 58.2286 22.5957C58.2393 20.381 58.1938 18.1713 58.2442 15.9574H61.4143V14.4533H58.1998C58.2017 13.4497 58.1971 12.4409 58.1998 11.4377C57.5625 11.4377 56.5902 11.4377 55.9579 11.4377V14.4529H54.0195V15.9652H55.9636C55.9639 18.1772 55.9576 20.3897 55.9683 22.6017C55.9699 23.0341 56.0001 23.471 56.0716 23.897C56.3949 26.3629 59.5713 26.2783 61.4299 25.7654C61.4299 25.3054 61.4299 24.5294 61.4291 24.0773H61.4297Z" fill="black"/>
<path d="M77.9828 18.002C77.9762 17.2173 77.7297 16.48 77.2853 15.8176C76.2721 14.3094 74.1332 13.6121 72.296 14.3333C70.6206 14.9906 69.6656 17.1644 69.6168 17.2656H69.5097V14.4561H67.2617V25.925H69.5105C69.5105 25.925 69.5045 20.645 69.5477 19.4187C69.5787 18.5411 69.8656 17.7288 70.462 17.0591C71.4198 15.9837 72.6384 15.8328 73.9612 16.1617C74.8277 16.3769 75.3899 16.9427 75.605 17.7991C75.7099 18.2154 75.7609 18.6552 75.7642 19.0848C75.7795 21.2476 75.771 23.4099 75.771 25.5722V25.925H77.9897C77.9897 23.2517 78.0031 20.6266 77.982 18.002H77.9828Z" fill="black"/>
<path d="M97.355 20.1371C97.3177 20.6813 97.1676 21.2548 97.1632 21.2595C96.6429 23.3413 95.1599 25.3343 92.4418 26.0077C90.1963 26.5634 88.0139 26.3858 86.0139 25.126C84.4136 24.1182 83.4662 22.6265 83.0224 20.8321C82.4862 18.6666 82.5062 16.4978 83.3468 14.4059C84.3851 11.8222 86.3659 10.4069 89.1328 10.0752C90.5292 9.90828 91.9136 10.0021 93.2311 10.5297C95.3961 11.3963 96.707 13.0927 97.2311 15.3368C97.2311 15.2908 97.2372 15.3626 97.2311 15.3368C96.8322 15.3368 96.4342 15.3387 96.0366 15.3378H94.775C94.7602 15.2964 94.7454 15.2555 94.7295 15.2154C94.6339 14.9647 94.5292 14.7389 94.4229 14.5388C94.4224 14.5374 94.4216 14.5361 94.421 14.5347C94.2522 14.1989 94.0476 13.8898 93.807 13.6064C93.804 13.6032 93.8013 13.6 93.7991 13.5972C93.7235 13.5066 93.6725 13.4537 93.6588 13.4404C93.6566 13.4381 93.6558 13.4367 93.6558 13.4367C93.467 13.2348 93.2572 13.0476 93.0276 12.8737C91.3857 11.6327 87.8136 11.5228 86.1424 14.2035C84.7906 16.3713 84.8259 20.0879 86.2616 22.201C87.1539 23.5152 88.4257 24.1669 90.0125 24.2456C91.9051 24.339 93.2163 23.5193 94.0054 22.3924C94.0054 22.3924 94.0059 22.3919 94.0073 22.3901C94.0207 22.3721 94.1139 22.2488 94.2402 22.0221C94.241 22.0207 94.2415 22.0193 94.2424 22.0179C94.2468 22.0101 94.2514 22.0023 94.2558 21.994C94.4539 21.6435 94.6065 21.2723 94.7155 20.8961C94.775 20.7061 94.8311 20.4987 94.8807 20.2737C94.8906 20.2296 94.9002 20.185 94.909 20.1394H95.8799C96.2687 20.1403 96.6572 20.1362 97.0459 20.1371H97.355Z" fill="black"/>
<path d="M109.404 24.6986H109.402C109.403 22.4461 109.41 20.1932 109.388 17.9407C109.371 16.3441 108.53 15.2545 107.082 14.6358C105.659 14.0264 104.16 13.9776 102.654 14.2379C101.292 14.4716 100.137 15.0847 99.3182 16.2264C98.8341 16.9021 98.5892 17.661 98.5273 18.4927H100.786C101.065 17.139 101.789 16.3455 103.037 16.0401C103.868 15.8363 104.702 15.8653 105.524 16.0934C106.168 16.2714 106.662 16.6569 106.973 17.2494C107.517 18.2903 107.046 19.2576 105.925 19.6104C104.739 19.9839 101.577 19.7474 100.548 20.109C99.2966 20.5487 98.4963 21.5423 98.4273 22.8748C98.3563 24.2722 98.9875 25.3122 100.264 25.8816C101.234 26.3145 102.258 26.3848 103.286 26.2124C105.13 25.9033 106.494 24.786 107.037 22.9305H107.209V25.9244H109.382H109.404V24.699V24.6986ZM103.934 24.5105C103.373 24.6287 102.755 24.5937 102.183 24.5095C101.233 24.3683 100.712 23.6687 100.764 22.7557C100.817 21.8431 101.409 21.2079 102.383 21.1789C106.258 21.063 106.957 20.2037 107.117 19.5961C107.117 22.2681 106.331 24.0109 103.934 24.5105H103.934Z" fill="black"/>
<path d="M122.355 16.9099C121.433 14.8345 119.428 13.8138 117.173 14.168C115.497 14.4306 114.437 15.4706 113.783 16.9725C113.742 17.0695 113.696 17.1656 113.652 17.2627H113.576V14.4541H111.34V29.9997H113.576V23.1521H113.652C113.695 23.2469 113.742 23.3417 113.783 23.4378C114.183 24.3945 114.775 25.1954 115.689 25.734C117.446 26.7708 120.636 26.5891 122.114 23.9654C123.4 21.6826 123.406 19.2741 122.355 16.9099ZM120.843 20.207C120.781 21.247 120.601 22.2313 119.989 23.0901C119.134 24.2883 117.931 24.6889 116.514 24.4631C115.155 24.2464 114.213 23.4567 113.8 22.1655C113.7 21.8537 113.626 21.5377 113.576 21.2208C113.472 20.5616 113.474 19.8946 113.576 19.2341C113.622 18.9361 113.688 18.6389 113.775 18.3445C114.225 16.8046 115.58 15.8791 117.189 15.8975C118.829 15.9159 120.18 16.8391 120.645 18.46C120.761 18.9135 120.874 19.5938 120.844 20.207H120.843Z" fill="black"/>
<path d="M126.91 14.4561H124.715V25.925H126.91V14.4561Z" fill="black"/>
<path d="M126.898 10.3625H124.727V12.5161H126.898V10.3625Z" fill="black"/>
<path d="M135.848 24.0994C134.802 24.3215 132.967 24.6996 132.707 23.2641C132.668 23.052 132.647 22.8335 132.647 22.6178C132.657 20.403 132.612 18.1933 132.662 15.9795H135.832V14.4754H132.618C132.62 13.4717 132.615 12.463 132.618 11.4377H130.376V14.4754H128.438V15.9878H130.382C130.382 18.1998 130.376 20.4122 130.386 22.6242C130.388 23.0566 130.418 23.4936 130.49 23.9195C130.813 26.3854 133.99 26.3008 135.848 25.7879C135.848 25.328 135.848 24.552 135.847 24.0998L135.848 24.0994Z" fill="black"/>
<path d="M147.932 24.6986H147.93C147.93 22.4461 147.938 20.1932 147.915 17.9407C147.898 16.3441 147.057 15.2545 145.609 14.6358C144.186 14.0264 142.687 13.9776 141.181 14.2379C139.82 14.4716 138.665 15.0847 137.846 16.2264C137.361 16.9021 137.116 17.661 137.055 18.4927H139.313C139.592 17.139 140.317 16.3455 141.565 16.0401C142.395 15.8363 143.229 15.8653 144.051 16.0934C144.695 16.2714 145.19 16.6569 145.5 17.2494C146.044 18.2903 145.573 19.2576 144.453 19.6104C143.266 19.9839 140.104 19.7474 139.076 20.109C137.824 20.5487 137.024 21.5423 136.955 22.8748C136.884 24.2722 137.515 25.3122 138.791 25.8816C139.761 26.3145 140.786 26.3848 141.813 26.2124C143.658 25.9033 145.021 24.786 145.564 22.9305H145.737V25.9244H147.909H147.932V24.699V24.6986ZM142.461 24.5105C141.901 24.6287 141.283 24.5937 140.71 24.5095C139.76 24.3683 139.239 23.6687 139.291 22.7557C139.345 21.8431 139.936 21.2079 140.911 21.1789C144.785 21.063 145.484 20.2037 145.645 19.5961C145.645 22.2681 144.858 24.0109 142.461 24.5105H142.461Z" fill="black"/>
</g>
<defs>
<clipPath id="clip0_28856_27063">
<rect width="130.137" height="20" fill="white" transform="translate(21.9297 10)"/>
</clipPath>
</defs>
</svg>
