<svg width="174" height="40" viewBox="0 0 174 40" fill="none" xmlns="http://www.w3.org/2000/svg">
<path d="M47.3089 17.1873C48.6977 18.9324 49.3738 21.2105 49.3738 24.0583C49.3738 26.9424 48.6612 29.2544 47.2725 30.9631C45.8837 32.6717 43.9982 33.5273 41.577 33.5273C38.6929 33.5273 36.5941 32.1386 35.8451 29.967L35.6683 33.171H33V6.47253H35.8841V18.3264C36.7034 16.0846 39.0154 14.5892 41.8631 14.5892C44.1413 14.5892 45.9565 15.4423 47.3089 17.1873ZM46.3831 24.0557C46.3831 19.4629 44.1751 17.1509 41.2207 17.1509C38.23 17.1509 36.1312 19.4291 35.8815 22.8464V25.2676C36.1312 28.6849 38.23 30.9631 41.2207 30.9631C44.1777 30.9631 46.3831 28.7187 46.3831 24.0557Z" fill="black"/>
<path d="M68.807 30.9967V33.1682C68.201 33.3451 67.6679 33.4179 67.205 33.4179C65.1765 33.4179 64.144 32.2424 64.144 29.9304V29.894C63.3248 32.0656 60.94 33.5245 57.9856 33.5245C54.4253 33.5245 52.1133 31.3894 52.1133 28.0787C52.1133 24.6614 54.5345 22.7031 57.9856 22.3833L62.2221 21.9567C63.0751 21.8865 64.001 21.7435 64.001 20.1415C64.001 18.0401 62.5056 17.0103 60.0505 17.0103C57.3094 17.0103 55.4942 18.3626 55.1743 20.5342H52.3629C52.9325 16.6904 55.7802 14.5552 60.1598 14.5552C64.6797 14.5552 66.9579 16.6566 66.9579 20.8203V29.3999C66.9579 30.6456 67.2778 31.0383 68.1334 31.0383C68.4507 31.0331 68.6666 31.0331 68.807 30.9967ZM64.1102 24.0919L58.8776 24.5184C56.316 24.7681 55.0338 25.9072 55.0338 27.9357C55.0338 29.9304 56.4226 31.0331 58.5577 31.0331C60.1962 31.0331 61.5121 30.4635 62.5446 29.3609C63.577 28.2218 64.1102 26.7992 64.1102 25.0541V24.0919Z" fill="black"/>
<path d="M73.2605 27.8291C73.2969 29.9642 74.9327 31.1397 77.5308 31.1397C80.0586 31.1397 81.5176 30.0006 81.5176 28.2556C81.5176 27.3662 81.1613 26.69 80.4149 26.2635C79.7023 25.837 79.5957 25.837 78.8493 25.5873L75.6817 24.7317C74.436 24.4118 73.6167 24.0555 72.4776 23.3429C71.375 22.5939 70.7326 21.3482 70.7326 19.7826C70.7326 16.615 73.3307 14.55 77.2109 14.55C81.1977 14.55 83.8322 16.7216 83.8322 19.9594H80.9844C80.948 18.0011 79.4527 16.9349 77.1745 16.9349C74.9327 16.9349 73.6506 17.9673 73.6506 19.6396C73.6506 21.2052 74.6128 21.6681 76.891 22.274L80.095 23.0933C82.9792 23.8761 84.4381 25.5145 84.4381 28.0059C84.4381 31.3868 81.6606 33.5245 77.4969 33.5245C73.2266 33.5245 70.4855 31.2464 70.3789 27.8291H73.2605Z" fill="black"/>
<path d="M99.9503 27.9019H102.905C102.158 31.4258 99.2377 33.5271 95.3939 33.5271C90.3746 33.5271 87.207 29.9668 87.207 24.0243C87.207 18.0817 90.4111 14.5552 95.3575 14.5552C97.6721 14.5552 99.5212 15.3016 100.91 16.797C102.299 18.2924 102.975 20.2845 102.975 22.7422C102.975 23.062 102.938 23.7382 102.868 24.7369H90.1614C90.1614 28.8667 92.1197 31.0383 95.3575 31.0383C97.745 31.0331 99.4172 29.8576 99.9503 27.9019ZM90.1978 22.3468H100.057V22.2766C100.057 18.8958 98.0986 17.0441 95.2145 17.0441C92.1925 17.0441 90.4475 19.0726 90.1978 22.3468Z" fill="black"/>
<path d="M122.841 14.9087V33.168H119.956V17.4001H110.667V27.5791C110.667 30.1434 111.556 30.9964 113.585 30.9964C114.048 30.9964 114.581 30.96 115.15 30.8534V33.168C114.295 33.3812 113.512 33.4879 112.836 33.4879C109.489 33.4879 107.816 31.6362 107.816 27.9354V17.4001H103.973V14.9087H105.611C107.32 14.9087 107.819 14.2689 107.819 12.7007V9.6397H110.667V14.9087H122.841ZM119.496 7.25488H123.233V10.2457H119.496V7.25488Z" fill="black"/>
<path d="M129.82 27.8291C129.857 29.9642 131.493 31.1397 134.091 31.1397C136.619 31.1397 138.077 30.0006 138.077 28.2556C138.077 27.3662 137.721 26.69 136.975 26.2635C136.262 25.837 136.156 25.837 135.409 25.5873L132.242 24.7317C130.996 24.4118 130.177 24.0555 129.038 23.3429C127.935 22.5939 127.292 21.3482 127.292 19.7826C127.292 16.615 129.891 14.55 133.771 14.55C137.758 14.55 140.392 16.7216 140.392 19.9594H137.544C137.508 18.0011 136.015 16.9349 133.737 16.9349C131.495 16.9349 130.213 17.9673 130.213 19.6396C130.213 21.2052 131.175 21.6681 133.453 22.274L136.658 23.0933C139.542 23.8761 141.001 25.5145 141.001 28.0059C141.001 31.3868 138.223 33.5245 134.059 33.5245C129.789 33.5245 127.048 31.2464 126.941 27.8291H129.82Z" fill="black"/>
</svg>
