<svg width="13" height="13" viewBox="0 0 13 13" fill="none" xmlns="http://www.w3.org/2000/svg">
<path d="M7.80664 6.5L11.8301 2.51562L12.6504 1.69531C12.7676 1.57812 12.7676 1.38281 12.6504 1.22656L11.791 0.367188C11.6348 0.25 11.4395 0.25 11.3223 0.367188L6.51758 5.21094L1.67383 0.367188C1.55664 0.25 1.36133 0.25 1.20508 0.367188L0.345703 1.22656C0.228516 1.38281 0.228516 1.57812 0.345703 1.69531L5.18945 6.5L0.345703 11.3438C0.228516 11.4609 0.228516 11.6562 0.345703 11.8125L1.20508 12.6719C1.36133 12.7891 1.55664 12.7891 1.67383 12.6719L6.51758 7.82812L10.502 11.8516L11.3223 12.6719C11.4395 12.7891 11.6348 12.7891 11.791 12.6719L12.6504 11.8125C12.7676 11.6562 12.7676 11.4609 12.6504 11.3438L7.80664 6.5Z" fill="black"/>
</svg>
