<?xml version="1.0" encoding="UTF-8"?>
<svg xmlns="http://www.w3.org/2000/svg" xmlns:xlink="http://www.w3.org/1999/xlink" width="610px" height="208px" viewBox="0 0 610 208" version="1.1">
  <title>Logos / Logo Horizontal Positive</title>
  <g id="Logos-/-Logo-Horizontal-Positive" stroke="none" stroke-width="1" fill="none" fill-rule="evenodd">
    <path d="M106,79 L106,54 L79,54 L79,79 L63.1,79 L54,104 L79,104 L79,154 L107.35,154 C112.6,154 117.3,150.71 119.1,145.78 L124.56,130.77 C124.56,130.77 125.2,129.01 127.08,129.01 L166.7,129.01 L175.8,104.01 L143.05,104.01 C137.8,104.01 133.1,107.3 131.3,112.23 L125.84,127.24 C125.84,127.24 125.2,129 123.32,129 L105.99,129 L105.99,104 L125.54,104 C130.79,104 135.49,100.71 137.29,95.78 L142.75,80.77 C142.75,80.77 143.39,79.01 145.27,79.01 L189.89,79.01 L199,54 L161.25,54 C156,54 151.3,57.29 149.5,62.22 L144.04,77.23 C144.04,77.23 143.4,78.99 141.52,78.99 L105.99,78.99 L106,79 Z M268.81,120.3 L266.69,126.13 C266.06,127.85 264.43,128.99 262.6,128.99 L253.34,128.99 C250.94,128.99 249,127.05 249,124.65 L249,97.15 L242.51,97.15 L242.51,89.98 L249,89.98 L249,78.98 L259.71,78.98 L259.71,89.98 L267.56,89.98 L267.56,97.15 L259.71,97.15 L259.71,120.29 L268.81,120.29 L268.81,120.3 Z M424.25,82.7 L416.86,82.7 L416.86,90 L424.25,90 L424.25,97.17 L416.86,97.17 L416.86,129.01 L406.15,129.01 L406.15,97.17 L399.66,97.17 L399.66,90 L406.15,90 L406.15,78.34 C406.15,75.94 408.09,74 410.49,74 L427.42,74 L424.26,82.7 L424.25,82.7 Z M272.99,84 L272.99,74 L283.7,74 L283.7,84 L272.99,84 Z M283.7,90 L283.7,129 L272.99,129 L272.99,90 L283.7,90 Z M302.56,90 L302.56,95.28 L302.71,95.28 C304.12,93.27 305.81,91.71 307.8,90.6 C309.79,89.49 312.06,88.94 314.63,88.94 C317.2,88.94 319.35,89.42 321.38,90.37 C323.42,91.33 324.96,93.01 326.02,95.42 C327.18,93.71 328.75,92.2 330.74,90.89 C332.73,89.58 335.08,88.93 337.79,88.93 C339.85,88.93 341.76,89.18 343.52,89.69 C345.28,90.19 346.79,91 348.05,92.1 C349.31,93.21 350.29,94.65 350.99,96.44 C351.69,98.23 352.05,100.38 352.05,102.89 L352.05,128.99 L341.34,128.99 L341.34,106.89 C341.34,105.58 341.29,104.35 341.19,103.19 C341.09,102.03 340.81,101.03 340.36,100.17 C339.91,99.32 339.24,98.64 338.36,98.13 C337.48,97.63 336.28,97.38 334.78,97.38 C333.28,97.38 332.05,97.67 331.12,98.25 C330.19,98.83 329.46,99.58 328.93,100.51 C328.4,101.44 328.05,102.5 327.87,103.68 C327.69,104.86 327.61,106.06 327.61,107.26 L327.61,128.99 L316.9,128.99 L316.9,107.11 C316.9,105.95 316.87,104.81 316.82,103.68 C316.77,102.55 316.56,101.51 316.18,100.55 C315.8,99.6 315.17,98.83 314.29,98.25 C313.41,97.67 312.11,97.38 310.4,97.38 C309.9,97.38 309.23,97.49 308.4,97.72 C307.57,97.95 306.77,98.37 305.99,99 C305.21,99.63 304.54,100.53 303.99,101.71 C303.44,102.89 303.16,104.44 303.16,106.35 L303.16,128.98 L292.45,128.98 L292.45,89.98 L302.56,89.98 L302.56,90 Z M371.97,119.64 C373.58,121.2 375.89,121.98 378.91,121.98 C381.07,121.98 382.93,121.44 384.49,120.36 C386.05,119.28 387,118.14 387.36,116.93 L396.79,116.93 C395.28,121.61 392.97,124.95 389.85,126.96 C386.73,128.97 382.96,129.98 378.53,129.98 C375.46,129.98 372.69,129.49 370.23,128.51 C367.76,127.53 365.68,126.13 363.97,124.32 C362.26,122.51 360.94,120.35 360.01,117.83 C359.08,115.32 358.61,112.55 358.61,109.53 C358.61,106.51 359.09,103.9 360.04,101.38 C360.99,98.87 362.35,96.69 364.11,94.85 C365.87,93.02 367.97,91.57 370.41,90.51 C372.85,89.45 375.55,88.92 378.52,88.92 C381.84,88.92 384.73,89.56 387.2,90.84 C389.66,92.12 391.69,93.85 393.27,96.01 C394.85,98.17 396,100.64 396.7,103.4 C397.4,106.17 397.65,109.06 397.45,112.08 L369.31,112.08 C369.46,115.55 370.34,118.07 371.95,119.62 L371.97,119.64 Z M384.08,99.12 C382.8,97.71 380.85,97.01 378.23,97.01 C376.52,97.01 375.1,97.3 373.97,97.88 C372.84,98.46 371.93,99.18 371.25,100.03 C370.57,100.89 370.09,101.79 369.82,102.75 C369.54,103.71 369.38,104.56 369.33,105.32 L386.76,105.32 C386.26,102.6 385.36,100.54 384.08,99.13 L384.08,99.12 Z M429.16,101.05 C430.11,98.51 431.47,96.35 433.23,94.56 C434.99,92.77 437.1,91.39 439.57,90.41 C442.03,89.43 444.8,88.94 447.87,88.94 C450.94,88.94 453.72,89.43 456.21,90.41 C458.7,91.39 460.82,92.77 462.58,94.56 C464.34,96.35 465.7,98.51 466.65,101.05 C467.6,103.59 468.08,106.42 468.08,109.54 C468.08,112.66 467.6,115.48 466.65,117.99 C465.69,120.5 464.34,122.65 462.58,124.44 C460.82,126.23 458.69,127.6 456.21,128.55 C453.72,129.51 450.94,129.98 447.87,129.98 C444.8,129.98 442.03,129.5 439.57,128.55 C437.1,127.6 434.99,126.22 433.23,124.44 C431.47,122.65 430.11,120.5 429.16,117.99 C428.2,115.48 427.73,112.66 427.73,109.54 C427.73,106.42 428.21,103.59 429.16,101.05 Z M438.89,114.1 C439.19,115.58 439.71,116.92 440.44,118.1 C441.17,119.28 442.14,120.23 443.34,120.93 C444.55,121.63 446.06,121.99 447.87,121.99 C449.68,121.99 451.2,121.64 452.43,120.93 C453.66,120.23 454.64,119.28 455.37,118.1 C456.1,116.92 456.61,115.59 456.92,114.1 C457.22,112.62 457.37,111.1 457.37,109.53 C457.37,107.96 457.22,106.44 456.92,104.93 C456.62,103.42 456.1,102.09 455.37,100.93 C454.64,99.77 453.66,98.83 452.43,98.1 C451.2,97.37 449.68,97.01 447.87,97.01 C446.06,97.01 444.55,97.38 443.34,98.1 C442.13,98.83 441.16,99.77 440.44,100.93 C439.71,102.09 439.19,103.42 438.89,104.93 C438.59,106.44 438.44,107.97 438.44,109.53 C438.44,111.09 438.59,112.61 438.89,114.1 Z M486.04,74 L486.04,129 L475.33,129 L475.33,74 L486.04,74 Z M522.18,124.02 C520.92,126.13 519.28,127.65 517.24,128.58 C515.2,129.51 512.9,129.98 510.34,129.98 C507.42,129.98 504.86,129.41 502.65,128.28 C500.44,127.15 498.61,125.62 497.18,123.68 C495.75,121.74 494.66,119.52 493.94,117 C493.21,114.49 492.85,111.87 492.85,109.15 C492.85,106.43 493.21,104.01 493.94,101.57 C494.67,99.13 495.75,96.98 497.18,95.12 C498.61,93.26 500.41,91.76 502.57,90.63 C504.73,89.5 507.25,88.93 510.11,88.93 C512.42,88.93 514.62,89.42 516.71,90.4 C518.8,91.38 520.44,92.83 521.65,94.74 L521.8,94.74 L521.8,73.99 L532.51,73.99 L532.51,128.99 L522.33,128.99 L522.33,124.01 L522.18,124.01 L522.18,124.02 Z M521.73,104.74 C521.43,103.26 520.91,101.95 520.18,100.82 C519.45,99.69 518.51,98.77 517.35,98.07 C516.19,97.37 514.73,97.01 512.97,97.01 C511.21,97.01 509.73,97.36 508.52,98.07 C507.31,98.78 506.34,99.7 505.62,100.86 C504.89,102.02 504.36,103.34 504.04,104.82 C503.71,106.3 503.55,107.85 503.55,109.46 C503.55,110.97 503.73,112.48 504.08,113.99 C504.43,115.5 505,116.85 505.78,118.03 C506.56,119.21 507.54,120.17 508.72,120.9 C509.9,121.63 511.32,121.99 512.98,121.99 C514.74,121.99 516.21,121.64 517.39,120.93 C518.57,120.23 519.51,119.28 520.22,118.1 C520.92,116.92 521.43,115.57 521.73,114.06 C522.03,112.55 522.18,110.99 522.18,109.38 C522.18,107.77 522.03,106.22 521.73,104.74 L521.73,104.74 Z" id="Combined-Shape" fill="#000000" fill-rule="nonzero"></path>
  </g>
</svg>
