<?xml version="1.0" encoding="UTF-8"?>
<svg xmlns="http://www.w3.org/2000/svg" xmlns:xlink="http://www.w3.org/1999/xlink" width="253px" height="258px" viewBox="0 0 253 258" version="1.1">
  <title>Logos / Logo Stacked Negative</title>
  <g id="Logos-/-Logo-Stacked-Negative" stroke="none" stroke-width="1" fill="none" fill-rule="evenodd">
    <path d="M106,78.9185992 L106,54 L79,54 L79,78.9185992 L63.1,78.9185992 L54,103.837198 L79,103.837198 L79,153.674397 L107.35,153.674397 C112.605,153.674397 117.3,150.400093 119.095,145.476178 L124.56,130.510067 C124.56,130.510067 125.205,128.755798 127.075,128.755798 L166.7,128.755798 L175.8,103.837198 L143.055,103.837198 C137.8,103.837198 133.105,107.111502 131.31,112.035418 L125.845,127.001528 C125.845,127.001528 125.205,128.755798 123.33,128.755798 L106.005,128.755798 L106.005,103.837198 L125.555,103.837198 C130.81,103.837198 135.505,100.562895 137.3,95.6389793 L142.765,80.6728686 C142.765,80.6728686 143.41,78.9185992 145.28,78.9185992 L189.905,78.9185992 L199,54 L161.255,54 C156,54 151.305,57.2743039 149.51,62.1982192 L144.045,77.1643299 C144.045,77.1643299 143.405,78.9185992 141.53,78.9185992 L106.005,78.9185992 L106,78.9185992 Z M67.15,199.175759 L66.09,202.081268 C65.775,202.938468 64.96,203.506612 64.045,203.506612 L59.415,203.506612 C58.215,203.506612 57.245,202.53977 57.245,201.343677 L57.245,187.638448 L54,187.638448 L54,184.065121 L57.245,184.065121 L57.245,178.583029 L62.6,178.583029 L62.6,184.065121 L66.525,184.065121 L66.525,187.638448 L62.6,187.638448 L62.6,199.170775 L67.15,199.170775 L67.15,199.175759 Z M144.87,180.436973 L141.175,180.436973 L141.175,184.075088 L144.87,184.075088 L144.87,187.648415 L141.175,187.648415 L141.175,203.516579 L135.82,203.516579 L135.82,187.648415 L132.575,187.648415 L132.575,184.075088 L135.82,184.075088 L135.82,178.264071 C135.82,177.067978 136.79,176.101136 137.99,176.101136 L146.455,176.101136 L144.875,180.436973 L144.87,180.436973 Z M69.24,181.084856 L69.24,176.101136 L74.595,176.101136 L74.595,181.084856 L69.24,181.084856 Z M74.595,184.075088 L74.595,203.511595 L69.24,203.511595 L69.24,184.075088 L74.595,184.075088 Z M84.025,184.075088 L84.025,186.706492 L84.1,186.706492 C84.805,185.704764 85.65,184.927304 86.645,184.374111 C87.64,183.820918 88.775,183.546814 90.06,183.546814 C91.345,183.546814 92.42,183.786032 93.435,184.259486 C94.455,184.737923 95.225,185.575188 95.755,186.776264 C96.335,185.924048 97.12,185.171506 98.115,184.518639 C99.11,183.865772 100.285,183.54183 101.64,183.54183 C102.67,183.54183 103.625,183.666423 104.505,183.920593 C105.385,184.169779 106.14,184.57346 106.77,185.121669 C107.4,185.674862 107.89,186.392518 108.24,187.284604 C108.59,188.176689 108.77,189.248189 108.77,190.499103 L108.77,203.506612 L103.415,203.506612 L103.415,192.492591 C103.415,191.839724 103.39,191.226726 103.34,190.648615 C103.29,190.070503 103.15,189.572131 102.925,189.143531 C102.7,188.719915 102.365,188.381022 101.925,188.126852 C101.485,187.877666 100.885,187.753073 100.135,187.753073 C99.385,187.753073 98.77,187.897601 98.305,188.186657 C97.84,188.475713 97.475,188.849492 97.21,189.312978 C96.945,189.776464 96.77,190.304738 96.68,190.892817 C96.59,191.480896 96.55,192.078942 96.55,192.676989 L96.55,203.506612 L91.195,203.506612 L91.195,192.602233 C91.195,192.024121 91.18,191.455977 91.155,190.892817 C91.13,190.329656 91.025,189.81135 90.835,189.332912 C90.645,188.859459 90.33,188.475713 89.89,188.186657 C89.45,187.897601 88.8,187.753073 87.945,187.753073 C87.695,187.753073 87.36,187.807894 86.945,187.92252 C86.53,188.037145 86.13,188.246462 85.74,188.560436 C85.35,188.87441 85.015,189.322945 84.74,189.911024 C84.465,190.499103 84.325,191.27158 84.325,192.22347 L84.325,203.501628 L78.97,203.501628 L78.97,184.065121 L84.025,184.065121 L84.025,184.075088 Z M118.73,198.846834 C119.535,199.624294 120.69,200.013024 122.2,200.013024 C123.28,200.013024 124.21,199.743903 124.99,199.205662 C125.77,198.66742 126.245,198.099276 126.425,197.496246 L131.14,197.496246 C130.385,199.828626 129.23,201.493189 127.67,202.494917 C126.11,203.496644 124.225,204 122.01,204 C120.475,204 119.09,203.755798 117.86,203.267393 C116.625,202.778989 115.585,202.081268 114.73,201.179215 C113.875,200.277161 113.215,199.200678 112.75,197.94478 C112.285,196.693867 112.05,195.313376 112.05,193.808293 C112.05,192.30321 112.29,191.002459 112.765,189.746561 C113.24,188.495648 113.92,187.409197 114.8,186.492192 C115.68,185.580171 116.73,184.857532 117.95,184.329258 C119.17,183.800983 120.52,183.536846 122.005,183.536846 C123.665,183.536846 125.11,183.855804 126.345,184.493721 C127.575,185.131637 128.59,185.99382 129.38,187.070304 C130.17,188.146787 130.745,189.377766 131.095,190.753273 C131.445,192.133763 131.57,193.574058 131.47,195.079141 L117.4,195.079141 C117.475,196.808492 117.915,198.06439 118.72,198.836866 L118.73,198.846834 Z M124.785,188.620241 C124.145,187.917536 123.17,187.568676 121.86,187.568676 C121.005,187.568676 120.295,187.713204 119.73,188.002259 C119.165,188.291315 118.71,188.650143 118.37,189.073759 C118.03,189.502359 117.79,189.950894 117.655,190.429331 C117.515,190.907768 117.435,191.331384 117.41,191.710147 L126.125,191.710147 C125.875,190.354575 125.425,189.327929 124.785,188.625224 L124.785,188.620241 Z M147.32,189.582098 C147.795,188.316234 148.475,187.23975 149.355,186.347664 C150.235,185.455578 151.29,184.767825 152.525,184.279421 C153.755,183.791016 155.14,183.546814 156.675,183.546814 C158.21,183.546814 159.6,183.791016 160.845,184.279421 C162.09,184.767825 163.15,185.455578 164.03,186.347664 C164.91,187.23975 165.59,188.316234 166.065,189.582098 C166.54,190.847963 166.78,192.258356 166.78,193.813277 C166.78,195.368197 166.54,196.773606 166.065,198.02452 C165.585,199.275434 164.91,200.346933 164.03,201.239019 C163.15,202.131105 162.085,202.813875 160.845,203.287328 C159.6,203.765765 158.21,204 156.675,204 C155.14,204 153.755,203.760781 152.525,203.287328 C151.29,202.813875 150.235,202.126121 149.355,201.239019 C148.475,200.346933 147.795,199.275434 147.32,198.02452 C146.84,196.773606 146.605,195.368197 146.605,193.813277 C146.605,192.258356 146.845,190.847963 147.32,189.582098 Z M152.185,196.085853 C152.335,196.823443 152.595,197.491262 152.96,198.079341 C153.325,198.66742 153.81,199.140873 154.41,199.489734 C155.015,199.838594 155.77,200.018008 156.675,200.018008 C157.58,200.018008 158.34,199.843578 158.955,199.489734 C159.57,199.140873 160.06,198.66742 160.425,198.079341 C160.79,197.491262 161.045,196.828427 161.2,196.085853 C161.35,195.348262 161.425,194.590737 161.425,193.808293 C161.425,193.025849 161.35,192.268323 161.2,191.515782 C161.05,190.76324 160.79,190.100405 160.425,189.522294 C160.06,188.944182 159.57,188.475713 158.955,188.111901 C158.34,187.74809 157.58,187.568676 156.675,187.568676 C155.77,187.568676 155.015,187.753073 154.41,188.111901 C153.805,188.475713 153.32,188.944182 152.96,189.522294 C152.595,190.100405 152.335,190.76324 152.185,191.515782 C152.035,192.268323 151.96,193.030833 151.96,193.808293 C151.96,194.585753 152.035,195.343279 152.185,196.085853 Z M175.765,176.101136 L175.765,203.511595 L170.41,203.511595 L170.41,176.101136 L175.765,176.101136 Z M193.83,201.029703 C193.2,202.081268 192.38,202.838793 191.36,203.302279 C190.34,203.765765 189.19,204 187.91,204 C186.45,204 185.17,203.715928 184.065,203.152768 C182.96,202.589607 182.045,201.827098 181.33,200.860256 C180.615,199.893415 180.07,198.787029 179.71,197.531132 C179.345,196.280218 179.165,194.974483 179.165,193.618912 C179.165,192.26334 179.345,191.05728 179.71,189.841252 C180.075,188.625224 180.615,187.553724 181.33,186.626753 C182.045,185.699781 182.945,184.952223 184.025,184.389062 C185.105,183.825902 186.365,183.54183 187.795,183.54183 C188.95,183.54183 190.05,183.786032 191.095,184.274437 C192.14,184.762841 192.96,185.485481 193.565,186.437371 L193.64,186.437371 L193.64,176.096153 L198.995,176.096153 L198.995,203.506612 L193.905,203.506612 L193.905,201.024719 L193.83,201.024719 L193.83,201.029703 Z M193.605,191.421091 C193.455,190.683501 193.195,190.030633 192.83,189.467473 C192.465,188.904313 191.995,188.44581 191.415,188.09695 C190.835,187.74809 190.105,187.568676 189.225,187.568676 C188.345,187.568676 187.605,187.743106 187,188.09695 C186.395,188.450794 185.91,188.909296 185.55,189.487408 C185.185,190.065519 184.92,190.72337 184.76,191.460961 C184.595,192.198551 184.515,192.971028 184.515,193.773407 C184.515,194.525949 184.605,195.27849 184.78,196.031032 C184.955,196.783574 185.24,197.456376 185.63,198.044455 C186.02,198.632534 186.51,199.110971 187.1,199.474782 C187.69,199.838594 188.4,200.018008 189.23,200.018008 C190.11,200.018008 190.845,199.843578 191.435,199.489734 C192.025,199.140873 192.495,198.66742 192.85,198.079341 C193.2,197.491262 193.455,196.81846 193.605,196.065918 C193.755,195.313376 193.83,194.535916 193.83,193.733537 C193.83,192.931158 193.755,192.158682 193.605,191.421091 L193.605,191.421091 Z" id="Combined-Shape" fill="#FFFFFF" fill-rule="nonzero"></path>
  </g>
</svg>
