<svg width="174" height="40" viewBox="0 0 174 40" fill="none" xmlns="http://www.w3.org/2000/svg">
<path d="M32.3828 15.2216C32.3828 14.3785 32.5442 13.5851 32.8665 12.8404C33.1891 12.0961 33.6292 11.4447 34.1868 10.8863C34.7441 10.3279 35.3945 9.88761 36.1382 9.56452C36.8819 9.24169 37.6742 9.08002 38.516 9.08002C39.3578 9.08002 40.1504 9.24169 40.8938 9.56452C41.6376 9.88761 42.2879 10.3279 42.8453 10.8863C43.4031 11.4447 43.8432 12.0961 44.1655 12.8404C44.4881 13.5851 44.6495 14.3785 44.6495 15.2216C44.6495 16.0647 44.4881 16.8584 44.1655 17.6026C43.8432 18.3471 43.4031 18.9983 42.8453 19.5567C42.2879 20.115 41.6376 20.5559 40.8938 20.8785C40.1504 21.2013 39.3578 21.363 38.516 21.363C37.6742 21.363 36.8819 21.2013 36.1382 20.8785C35.3945 20.5559 34.7441 20.115 34.1868 19.5567C33.6292 18.9983 33.1891 18.3471 32.8665 17.6026C32.5442 16.8584 32.3828 16.0647 32.3828 15.2216ZM33.5324 15.2132C33.5324 15.8933 33.6636 16.5374 33.9265 17.146C34.1894 17.7546 34.5477 18.2864 35.0022 18.7414C35.4563 19.1968 35.9873 19.5556 36.5948 19.819C37.2026 20.0822 37.8456 20.2136 38.5244 20.2136C39.2032 20.2136 39.8436 20.0822 40.4456 19.819C41.0476 19.5556 41.576 19.1968 42.0303 18.7414C42.4846 18.2864 42.8432 17.7546 43.1061 17.146C43.3687 16.5374 43.4999 15.8933 43.4999 15.2132C43.4999 14.5334 43.3687 13.8919 43.1061 13.2889C42.8432 12.6861 42.4846 12.1569 42.0303 11.7018C41.576 11.2465 41.0476 10.8876 40.4456 10.6245C39.8436 10.3611 39.2032 10.2296 38.5244 10.2296C37.8456 10.2296 37.2026 10.3611 36.5948 10.6245C35.9873 10.8876 35.4562 11.2465 35.0022 11.7018C34.5477 12.1569 34.1894 12.6861 33.9265 13.2889C33.6636 13.8919 33.5324 14.5334 33.5324 15.2132Z" fill="black"/>
<path d="M58.2969 16.8635C58.2969 16.2394 58.4147 15.654 58.6502 15.1064C58.8852 14.5593 59.2083 14.08 59.6189 13.6697C60.0293 13.259 60.5083 12.9362 61.0556 12.7007C61.603 12.4654 62.1887 12.3476 62.8128 12.3476C63.4369 12.3476 64.0223 12.4654 64.5699 12.7007C65.1173 12.9362 65.5963 13.259 66.0069 13.6697C66.4173 14.08 66.7398 14.5593 66.9754 15.1064C67.2109 15.654 67.3287 16.2394 67.3287 16.8635C67.3287 17.4876 67.2109 18.0733 66.9754 18.6207C66.7398 19.168 66.4173 19.647 66.0069 20.0573C65.5963 20.468 65.1173 20.7911 64.5699 21.0264C64.0223 21.2616 63.4369 21.3794 62.8128 21.3794C62.1887 21.3794 61.5483 21.2151 60.8916 20.8868C60.2346 20.5474 59.7528 20.1312 59.4465 19.6386V24.2365H58.2969V16.8635ZM59.4465 16.8635C59.4465 17.3233 59.534 17.7584 59.7091 18.169C59.8842 18.5794 60.125 18.9382 60.4318 19.2445C60.7381 19.5513 61.0966 19.7921 61.5073 19.9672C61.9179 20.1423 62.353 20.2298 62.8128 20.2298C63.2726 20.2298 63.7077 20.1423 64.1183 19.9672C64.5289 19.7921 64.8872 19.5513 65.194 19.2445C65.5 18.9382 65.7411 18.5794 65.9165 18.169C66.0915 17.7584 66.1791 17.3233 66.1791 16.8635C66.1791 16.4037 66.0915 15.9686 65.9165 15.558C65.7411 15.1476 65.5 14.789 65.194 14.4825C64.8872 14.176 64.5289 13.9352 64.1183 13.7598C63.7077 13.585 63.2726 13.4972 62.8128 13.4972C62.353 13.4972 61.9179 13.585 61.5073 13.7598C61.0966 13.9352 60.7381 14.176 60.4318 14.4825C60.125 14.789 59.8842 15.1476 59.7091 15.558C59.534 15.9686 59.4465 16.4037 59.4465 16.8635Z" fill="black"/>
<path d="M81.2852 13.9242V12.7746H82.1225V9.49054H83.2721V12.7746H85.423V13.9242H83.2721V20.9688H82.1225V13.9242H81.2852Z" fill="black"/>
<path d="M99.0547 16.8472C99.0547 16.2231 99.1722 15.6377 99.4078 15.0901C99.643 14.5427 99.9659 14.0637 100.376 13.6531C100.787 13.2427 101.266 12.9199 101.813 12.6844C102.361 12.4491 102.947 12.3313 103.571 12.3313C104.194 12.3313 104.78 12.4491 105.327 12.6844C105.875 12.9199 106.354 13.2427 106.764 13.6531C107.175 14.0637 107.498 14.5427 107.733 15.0901C107.968 15.6377 108.086 16.2231 108.086 16.8472V20.9688H106.937V19.8686L106.756 20.0492C106.351 20.4543 105.875 20.7745 105.327 21.0098C104.78 21.2451 104.194 21.3629 103.571 21.3629C102.946 21.3629 102.361 21.2451 101.813 21.0098C101.266 20.7745 100.787 20.4514 100.376 20.041C99.9659 19.6304 99.643 19.1517 99.4078 18.6041C99.1722 18.0568 99.0547 17.471 99.0547 16.8472ZM100.204 16.8472C100.204 17.307 100.292 17.7421 100.467 18.1525C100.642 18.5631 100.883 18.9217 101.189 19.2282C101.496 19.5347 101.854 19.7758 102.265 19.9506C102.675 20.126 103.111 20.2135 103.571 20.2135C104.03 20.2135 104.465 20.126 104.876 19.9506C105.286 19.7758 105.645 19.5347 105.951 19.2282C106.258 18.9217 106.499 18.5631 106.674 18.1525C106.849 17.7421 106.937 17.307 106.937 16.8472C106.937 16.3874 106.849 15.9521 106.674 15.5417C106.499 15.1311 106.258 14.7727 105.951 14.466C105.645 14.1597 105.286 13.9186 104.876 13.7435C104.465 13.5685 104.03 13.4806 103.571 13.4806C103.111 13.4806 102.675 13.5685 102.265 13.7435C101.854 13.9186 101.496 14.1597 101.189 14.466C100.883 14.7727 100.642 15.1311 100.467 15.5417C100.292 15.9521 100.204 16.3874 100.204 16.8472Z" fill="black"/>
<path d="M123.882 19.8194H130.615V20.9688H121.633L128.349 10.6235H122.454V9.47394H130.615L123.882 19.8194Z" fill="black"/>
<path d="M144.656 9.47394H152.308V10.6236H145.806V15.3527H151.159V16.5023H145.806V19.8194H152.308V20.9688H144.656V9.47394Z" fill="black"/>
<path d="M172.85 9.47394H174V20.9688H172.85L167.497 11.7729V20.9688H166.348V9.47394H167.497L172.85 18.6698V9.47394Z" fill="black"/>
<path d="M36.3475 26.5791H34.6728V30.8854H34.0577V26.5791H32.3828V26.0322H36.3475L36.3475 26.5791Z" fill="black"/>
<path d="M41.4969 26.0322V30.8854H40.8816V28.6775H38.2091V30.8854H37.5938V26.0322H38.2091V28.1308H40.8816V26.0322H41.4969Z" fill="black"/>
<path d="M46.4978 30.3386V30.8854H43.2031V26.0322H46.4364V26.5791H43.8185V28.1512H46.0945V28.6639H43.8185V30.3386L46.4978 30.3386Z" fill="black"/>
<path d="M51.4265 26.0322H51.9462L53.9283 30.8854H53.2721L52.698 29.4637H50.6611L50.0937 30.8854H49.4375L51.4265 26.0322ZM52.5613 28.9852L51.6862 26.7431L50.7841 28.9852H52.5613Z" fill="black"/>
<path d="M55.125 30.8854V26.0322H57.203C57.4172 26.0322 57.6142 26.0767 57.7943 26.1655C57.9743 26.2544 58.1293 26.373 58.2591 26.521C58.389 26.6691 58.4903 26.8354 58.5633 27.02C58.6362 27.2045 58.6726 27.3926 58.6726 27.5839C58.6726 27.7525 58.6487 27.9154 58.601 28.0726C58.553 28.2299 58.4847 28.3723 58.3959 28.4998C58.3069 28.6275 58.1999 28.7368 58.0746 28.8279C57.9492 28.9192 57.809 28.9852 57.6541 29.0262L58.8299 30.8854H58.1327L57.0252 29.1424H55.7403V30.8854L55.125 30.8854ZM55.7403 28.5955H57.2099C57.3373 28.5955 57.4524 28.5682 57.555 28.5135C57.6575 28.4589 57.7453 28.3848 57.8181 28.2914C57.891 28.198 57.948 28.0897 57.9891 27.9667C58.0301 27.8436 58.0506 27.7161 58.0506 27.5839C58.0506 27.4472 58.0267 27.3185 57.9788 27.1977C57.931 27.077 57.8671 26.9699 57.7874 26.8764C57.7077 26.7831 57.6142 26.7102 57.5072 26.6577C57.4 26.6054 57.2874 26.5791 57.1688 26.5791H55.7403V28.5955Z" fill="black"/>
<path d="M63.6209 26.5791H61.9463V30.8854H61.3311V26.5791H59.6562V26.0322H63.6209V26.5791Z" fill="black"/>
<path d="M68.904 30.9196C68.5624 30.9196 68.2513 30.8502 67.9711 30.7112C67.6907 30.5722 67.4504 30.3876 67.25 30.1574C67.0493 29.9274 66.8946 29.6643 66.7851 29.3679C66.6757 29.0718 66.6211 28.7688 66.6211 28.4589C66.6211 28.1353 66.6792 27.8255 66.7955 27.5292C66.9116 27.2331 67.0722 26.9711 67.2773 26.7431C67.4824 26.5154 67.7249 26.3342 68.0053 26.1997C68.2855 26.0654 68.5897 25.998 68.9178 25.998C69.2596 25.998 69.5693 26.0699 69.8475 26.2134C70.1254 26.357 70.3645 26.5449 70.5651 26.7773C70.7656 27.0097 70.9205 27.2729 71.03 27.5668C71.1392 27.8607 71.194 28.1604 71.194 28.4657C71.194 28.7893 71.136 29.0991 71.0197 29.3953C70.9036 29.6916 70.744 29.9524 70.5413 30.1779C70.3384 30.4035 70.0969 30.5836 69.8167 30.7179C69.5363 30.8524 69.2321 30.9196 68.904 30.9196ZM67.2431 28.4589C67.2431 28.7049 67.283 28.9431 67.3627 29.1731C67.4423 29.4033 67.5552 29.6072 67.7011 29.7849C67.8469 29.9626 68.0223 30.1039 68.2274 30.2087C68.4325 30.3136 68.6603 30.366 68.9109 30.366C69.1706 30.366 69.403 30.3101 69.6082 30.1985C69.8133 30.0868 69.9874 29.9411 70.131 29.7609C70.2747 29.581 70.3839 29.3771 70.4591 29.1492C70.5344 28.9214 70.572 28.6913 70.572 28.4589C70.572 28.2128 70.532 27.9747 70.4523 27.7445C70.3726 27.5145 70.2587 27.3116 70.1106 27.1362C69.9624 26.9608 69.787 26.8207 69.5843 26.7158C69.3814 26.611 69.1571 26.5586 68.9109 26.5586C68.6512 26.5586 68.4188 26.6133 68.2136 26.7226C68.0087 26.832 67.8344 26.9756 67.6907 27.1533C67.5473 27.331 67.4367 27.5338 67.3592 27.7616C67.2817 27.9896 67.2431 28.2219 67.2431 28.4589Z" fill="black"/>
<path d="M72.5938 30.8854V26.0322H75.7997V26.5791H73.2091V28.199H75.3895V28.7117H73.2091V30.8854H72.5938Z" fill="black"/>
<path d="M79.2383 30.8854V26.0322H81.2617C81.4757 26.0322 81.6729 26.0767 81.8529 26.1655C82.0328 26.2544 82.1879 26.373 82.3178 26.521C82.4476 26.6691 82.549 26.8354 82.6218 27.02C82.6946 27.2045 82.7312 27.3926 82.7312 27.5839C82.7312 27.7845 82.6971 27.9782 82.6287 28.165C82.5603 28.3519 82.4634 28.5181 82.3382 28.6639C82.2128 28.8098 82.0625 28.926 81.8871 29.0125C81.7115 29.0991 81.5168 29.1424 81.3027 29.1424H79.8536V30.8854L79.2383 30.8854ZM79.8536 28.5955H81.2686C81.396 28.5955 81.5111 28.5694 81.6136 28.5169C81.7162 28.4646 81.8038 28.3916 81.8768 28.2982C81.9496 28.2049 82.0067 28.0966 82.0477 27.9735C82.0888 27.8505 82.1092 27.7207 82.1092 27.5839C82.1092 27.4427 82.0854 27.3105 82.0374 27.1874C81.9897 27.0645 81.9258 26.9573 81.8461 26.8662C81.7664 26.7751 81.6729 26.7045 81.5657 26.6543C81.4587 26.6042 81.3458 26.5791 81.2275 26.5791H79.8536V28.5955Z" fill="black"/>
<path d="M84.0469 30.8854V26.0322H84.6622V30.3386H87.3689V30.8854H84.0469Z" fill="black"/>
<path d="M90.0632 26.0322H90.5829L92.565 30.8854H91.9088L91.3348 29.4637H89.2978L88.7304 30.8854H88.0742L90.0632 26.0322ZM91.198 28.9852L90.323 26.7431L89.4208 28.9852H91.198Z" fill="black"/>
<path d="M94.3771 27.1806V30.8854H93.7617V26.0322H94.2403L97.2478 29.8122V26.0391H97.8631V30.8854H97.3435L94.3771 27.1806Z" fill="black"/>
<path d="M100.186 27.1806V30.8854H99.5703V26.0322H100.049L103.056 29.8122V26.0391H103.672V30.8854H103.152L100.186 27.1806Z" fill="black"/>
<path d="M105.379 30.8854V26.0322H105.994V30.8854H105.379Z" fill="black"/>
<path d="M108.318 27.1806V30.8854H107.703V26.0322H108.182L111.189 29.8122V26.0391H111.805V30.8854H111.285L108.318 27.1806Z" fill="black"/>
<path d="M116.938 30.2292C116.51 30.6895 116.018 30.9196 115.462 30.9196C115.138 30.9196 114.838 30.849 114.563 30.7077C114.287 30.5665 114.049 30.3807 113.849 30.1506C113.648 29.9205 113.49 29.6574 113.374 29.3611C113.257 29.0649 113.199 28.7596 113.199 28.4452C113.199 28.117 113.256 27.806 113.37 27.5121C113.484 27.2182 113.641 26.9585 113.842 26.7329C114.042 26.5073 114.281 26.3286 114.559 26.1963C114.837 26.0642 115.138 25.998 115.462 25.998C115.931 25.998 116.317 26.0961 116.62 26.2921C116.923 26.488 117.155 26.7431 117.314 27.0576L116.842 27.3857C116.697 27.1032 116.503 26.8935 116.262 26.7568C116.02 26.6202 115.749 26.5518 115.448 26.5518C115.202 26.5518 114.979 26.6054 114.778 26.7124C114.578 26.8195 114.407 26.9608 114.265 27.1362C114.124 27.3117 114.015 27.5145 113.937 27.7445C113.86 27.9747 113.821 28.2128 113.821 28.4589C113.821 28.7186 113.865 28.9636 113.951 29.1937C114.038 29.4239 114.156 29.6266 114.307 29.802C114.457 29.9775 114.635 30.1153 114.84 30.2156C115.045 30.3158 115.268 30.366 115.51 30.366C116.038 30.366 116.514 30.1108 116.938 29.6003V28.9305H115.892V28.4657H117.458V30.8854H116.938L116.938 30.2292Z" fill="black"/>
<path d="M123.185 30.9196C122.844 30.9196 122.533 30.8502 122.252 30.7112C121.972 30.5722 121.732 30.3876 121.531 30.1574C121.331 29.9274 121.176 29.6643 121.066 29.3679C120.957 29.0718 120.902 28.7688 120.902 28.4589C120.902 28.1353 120.96 27.8255 121.077 27.5292C121.193 27.2331 121.353 26.9711 121.559 26.7431C121.764 26.5154 122.006 26.3342 122.287 26.1997C122.567 26.0654 122.871 25.998 123.199 25.998C123.541 25.998 123.851 26.0699 124.129 26.2134C124.407 26.357 124.646 26.5449 124.846 26.7773C125.047 27.0097 125.202 27.2729 125.311 27.5668C125.42 27.8607 125.475 28.1604 125.475 28.4657C125.475 28.7893 125.417 29.0991 125.301 29.3953C125.185 29.6916 125.025 29.9524 124.823 30.1779C124.62 30.4035 124.378 30.5836 124.098 30.7179C123.818 30.8524 123.513 30.9196 123.185 30.9196ZM121.524 28.4589C121.524 28.7049 121.564 28.9431 121.644 29.1731C121.724 29.4033 121.836 29.6072 121.982 29.7849C122.128 29.9626 122.304 30.1039 122.509 30.2087C122.714 30.3136 122.942 30.366 123.192 30.366C123.452 30.366 123.684 30.3101 123.889 30.1985C124.095 30.0868 124.269 29.9411 124.412 29.7609C124.556 29.581 124.665 29.3771 124.74 29.1492C124.816 28.9214 124.853 28.6913 124.853 28.4589C124.853 28.2128 124.813 27.9747 124.734 27.7445C124.654 27.5145 124.54 27.3116 124.392 27.1362C124.244 26.9608 124.068 26.8207 123.866 26.7158C123.663 26.611 123.438 26.5586 123.192 26.5586C122.932 26.5586 122.7 26.6133 122.495 26.7226C122.29 26.832 122.116 26.9756 121.972 27.1533C121.829 27.331 121.718 27.5338 121.64 27.7616C121.563 27.9896 121.524 28.2219 121.524 28.4589Z" fill="black"/>
<path d="M126.875 30.8854V26.0322H128.898C129.112 26.0322 129.31 26.0767 129.49 26.1655C129.669 26.2544 129.825 26.373 129.955 26.521C130.084 26.6691 130.186 26.8354 130.259 27.02C130.331 27.2045 130.368 27.3926 130.368 27.5839C130.368 27.7845 130.334 27.9782 130.265 28.165C130.197 28.3519 130.1 28.5181 129.975 28.6639C129.85 28.8098 129.699 28.926 129.524 29.0125C129.348 29.0991 129.153 29.1424 128.939 29.1424H127.49V30.8854L126.875 30.8854ZM127.49 28.5955H128.905C129.033 28.5955 129.148 28.5694 129.25 28.5169C129.353 28.4646 129.441 28.3916 129.514 28.2982C129.586 28.2049 129.643 28.0966 129.684 27.9735C129.726 27.8505 129.746 27.7207 129.746 27.5839C129.746 27.4427 129.722 27.3105 129.674 27.1874C129.626 27.0645 129.562 26.9573 129.483 26.8662C129.403 26.7751 129.31 26.7045 129.202 26.6543C129.095 26.6042 128.983 26.5791 128.864 26.5791H127.49V28.5955Z" fill="black"/>
<path d="M135.18 26.5791H133.505V30.8854H132.89V26.5791H131.215V26.0322H135.18V26.5791Z" fill="black"/>
<path d="M136.426 30.8854V26.0322H137.041V30.8854H136.426Z" fill="black"/>
<path d="M142.947 30.8854V27.1327L141.334 30.0105H140.985L139.365 27.1327V30.8854H138.75V26.0322H139.4L141.156 29.1834L142.92 26.0322H143.562V30.8854H142.947Z" fill="black"/>
<path d="M145.27 30.8854V26.0322H145.885V30.8854H145.27Z" fill="black"/>
<path d="M147.23 30.4069L150.361 26.5791H147.292V26.0322H151.079V26.5107L148.003 30.3386H151.079V30.8854H147.23V30.4069Z" fill="black"/>
<path d="M153.93 26.0322H154.45L156.432 30.8854H155.776L155.202 29.4637H153.165L152.598 30.8854H151.941L153.93 26.0322ZM155.065 28.9852L154.19 26.7431L153.288 28.9852H155.065Z" fill="black"/>
<path d="M160.672 26.5791H158.997V30.8854H158.382V26.5791H156.707V26.0322H160.672V26.5791Z" fill="black"/>
<path d="M161.914 30.8854V26.0322H162.529V30.8854H161.914Z" fill="black"/>
<path d="M166.209 30.9196C165.867 30.9196 165.556 30.8502 165.276 30.7112C164.995 30.5722 164.755 30.3876 164.555 30.1574C164.354 29.9274 164.199 29.6643 164.09 29.3679C163.98 29.0718 163.926 28.7688 163.926 28.4589C163.926 28.1353 163.984 27.8255 164.1 27.5292C164.216 27.2331 164.377 26.9711 164.582 26.7431C164.787 26.5154 165.03 26.3342 165.31 26.1997C165.59 26.0654 165.894 25.998 166.222 25.998C166.564 25.998 166.874 26.0699 167.152 26.2134C167.43 26.357 167.669 26.5449 167.87 26.7773C168.07 27.0097 168.225 27.2729 168.335 27.5668C168.444 27.8607 168.499 28.1604 168.499 28.4657C168.499 28.7893 168.441 29.0991 168.324 29.3953C168.208 29.6916 168.049 29.9524 167.846 30.1779C167.643 30.4035 167.402 30.5836 167.121 30.7179C166.841 30.8524 166.537 30.9196 166.209 30.9196ZM164.548 28.4589C164.548 28.7049 164.588 28.9431 164.667 29.1731C164.747 29.4033 164.86 29.6072 165.006 29.7849C165.152 29.9626 165.327 30.1039 165.532 30.2087C165.737 30.3136 165.965 30.366 166.216 30.366C166.475 30.366 166.708 30.3101 166.913 30.1985C167.118 30.0868 167.292 29.9411 167.436 29.7609C167.579 29.581 167.689 29.3771 167.764 29.1492C167.839 28.9214 167.877 28.6913 167.877 28.4589C167.877 28.2128 167.837 27.9747 167.757 27.7445C167.677 27.5145 167.563 27.3116 167.415 27.1362C167.267 26.9608 167.092 26.8207 166.889 26.7158C166.686 26.611 166.462 26.5586 166.216 26.5586C165.956 26.5586 165.723 26.6133 165.518 26.7226C165.313 26.832 165.139 26.9756 164.995 27.1533C164.852 27.331 164.741 27.5338 164.664 27.7616C164.586 27.9896 164.548 28.2219 164.548 28.4589Z" fill="black"/>
<path d="M170.514 27.1806V30.8854H169.898V26.0322H170.377L173.385 29.8122V26.0391H174V30.8854H173.48L170.514 27.1806Z" fill="black"/>
<path d="M3.48568 15.476C2.78216 16.517 2.37095 17.7742 2.37109 19.1245C2.37104 20.0245 2.55368 20.8836 2.88401 21.6645C3.37956 22.8359 4.20649 23.8315 5.24773 24.535C6.28873 25.2386 7.546 25.6498 8.89623 25.6496C9.40424 25.6497 9.89923 25.5914 10.3745 25.4813L11.4957 24.3601C10.7129 24.7496 9.8311 24.9687 8.89623 24.9688C8.08837 24.9687 7.32049 24.8052 6.62148 24.5096C5.57313 24.0663 4.68009 23.3248 4.04987 22.3918C3.41967 21.4587 3.0521 20.336 3.05196 19.1245C3.05201 18.3166 3.2155 17.5487 3.51109 16.8497C3.95444 15.8013 4.69595 14.9083 5.62889 14.2781C6.56206 13.6479 7.68467 13.2803 8.89624 13.2802C9.7041 13.2802 10.472 13.4437 11.171 13.7393C12.2194 14.1826 13.1124 14.9242 13.7426 15.8571C14.3728 16.7903 14.7404 17.9129 14.7405 19.1245C14.7405 19.4099 14.7197 19.6902 14.6802 19.9644C14.6777 19.9817 14.6756 19.9992 14.6729 20.0165C14.6708 20.0303 14.6683 20.044 14.6661 20.0578C14.6605 20.0924 14.655 20.127 14.6489 20.1614C14.6468 20.1729 14.6444 20.1844 14.6423 20.1959C14.6355 20.2323 14.6287 20.2688 14.6213 20.305C14.5435 20.6845 14.4289 21.0504 14.2814 21.3992C14.2346 21.5098 14.1838 21.6182 14.1306 21.7252L15.2531 20.6027C15.2654 20.5496 15.2769 20.4962 15.2879 20.4426C15.2897 20.4335 15.2916 20.4244 15.2934 20.4153C15.3005 20.3799 15.3073 20.3444 15.3138 20.3088C15.3165 20.2942 15.3192 20.2796 15.3218 20.2649C15.3299 20.2188 15.3377 20.1726 15.3449 20.1262C15.3452 20.124 15.3456 20.1217 15.346 20.1194C15.3496 20.0956 15.3529 20.0716 15.3563 20.0477C15.399 19.7459 15.4214 19.4377 15.4214 19.1245C15.4215 18.2245 15.2388 17.3653 14.9085 16.5845C14.4129 15.413 13.586 14.4174 12.5448 13.7139C11.5037 13.0104 10.2465 12.5992 8.89624 12.5993C7.99624 12.5993 7.13709 12.7819 6.35625 13.1122C5.18482 13.6078 4.1892 14.4347 3.48568 15.476Z" fill="black"/>
<path d="M14.4381 19.1247C14.4381 19.076 14.4373 19.0275 14.436 18.9791H8.89844V19.66L14.4119 19.66C14.4288 19.4839 14.4381 19.3055 14.4381 19.1247Z" fill="black"/>
<path d="M19.5514 26.9138C21.0802 25.0258 21.9966 22.6182 21.9964 20C21.9965 18.4827 21.6887 17.0354 21.1322 15.7196C20.2972 13.7458 18.9034 12.0675 17.1485 10.8819C15.3939 9.69629 13.2764 9.00358 11.0002 9.00372C9.48284 9.00367 8.03558 9.31142 6.71983 9.868C4.74602 10.7029 3.06771 12.0968 1.8821 13.8516C0.696469 15.6062 0.00376694 17.7238 0.00390627 20C0.00373296 22.6063 0.911815 25.0039 2.42804 26.888C3.43564 28.1404 4.71192 29.1672 6.17005 29.8813C7.62805 30.5954 9.26839 30.9963 11.0002 30.9963C12.726 30.9963 14.361 30.5982 15.8152 29.8887C16.3217 29.6416 16.8056 29.3561 17.2647 29.0372H15.9766C15.8255 29.1206 15.6723 29.2008 15.5167 29.2767C14.1527 29.942 12.6211 30.3153 11.0002 30.3154C9.37362 30.3153 7.83709 29.9395 6.4695 29.2698C5.10205 28.6002 3.90404 27.6365 2.95854 26.4612C1.53572 24.6923 0.684939 22.4472 0.684766 20C0.684816 18.5748 0.973417 17.2188 1.49526 15.9849C2.27799 14.1341 3.58644 12.5584 5.23297 11.4461C6.87974 10.3338 8.8626 9.68473 11.0002 9.68459C12.4254 9.68464 13.7813 9.97324 15.0153 10.4951C16.866 11.2778 18.4417 12.5863 19.5541 14.2328C20.6663 15.8796 21.3154 17.8624 21.3156 20C21.3154 22.4584 20.4568 24.7129 19.0222 26.4855C18.7221 26.8562 18.3965 27.2056 18.0486 27.5314H17.4513H9.72068L18.2731 18.9789H15.7267C15.7278 19.0273 15.7286 19.0758 15.7286 19.1245C15.7286 19.3045 15.7213 19.483 15.7076 19.6598H16.6294L8.07692 28.2122H17.2425C17.2406 28.2137 17.2386 28.2152 17.2367 28.2167H18.308C18.757 27.8171 19.173 27.3813 19.5514 26.9138Z" fill="black"/>
</svg>
