<svg width="174" height="40" viewBox="0 0 174 40" fill="none" xmlns="http://www.w3.org/2000/svg">
<mask id="mask0_28856_27049" style="mask-type:luminance" maskUnits="userSpaceOnUse" x="19" y="10" width="136" height="20">
<path d="M154.805 10H19.1953V30H154.805V10Z" fill="white"/>
</mask>
<g mask="url(#mask0_28856_27049)">
<path d="M154.806 20.163V29.6821H152.289L152.292 20.8638C152.145 16.5097 146.349 16.4937 145.678 20.6651C145.63 20.9703 145.633 21.2808 145.58 21.586V29.6821H143.066V15.5302H145.582V17.4856C146.725 15.8479 148.55 15.1594 150.502 15.3671C153.055 15.6385 154.641 17.537 154.766 20.0955L154.804 20.163H154.806Z" fill="black"/>
<path d="M28.2376 10.3598C30.8078 10.1984 33.4374 11.0696 35.3279 12.8385L29.085 19.7584C28.8963 19.9251 29.0535 20.2445 29.2737 20.2445C29.4082 20.2445 29.7507 19.8523 29.8608 19.7388C31.989 17.5227 33.9215 15.1008 36.0636 12.8953C40.5138 8.80907 47.4766 9.76011 50.7335 14.8542C53.5379 19.242 52.4161 25.0724 48.2803 28.126C44.6408 30.8123 39.5214 30.5727 36.1719 27.5316L36.1893 27.473L42.7521 20.61C42.8569 20.4858 42.8935 20.2498 42.7503 20.1451C42.5074 19.9677 42.2803 20.2764 42.1231 20.4397C40.7829 21.8272 39.4812 23.259 38.1428 24.6483C35.7438 27.1412 34.0088 29.3361 30.3588 29.8879C22.8159 31.0287 16.9678 23.3336 20.022 16.2239C21.432 12.9432 24.6977 10.5816 28.2376 10.3598Z" fill="black"/>
<path d="M136.447 10.22V12.3031C135.555 12.2889 133.817 11.9872 133.311 12.9684C133.211 13.1601 133.094 13.6445 133.094 13.8538V15.5323H136.447V17.9116H133.094V29.6824H130.683L130.621 29.6185V17.9116H124.626V26.1764C124.626 26.3183 124.723 26.7246 124.781 26.8683C124.907 27.1789 125.101 27.3492 125.41 27.4628C125.509 27.5 125.861 27.5994 125.945 27.5994H128.104V29.6398C127.91 29.6061 127.722 29.6753 127.54 29.6842C125.233 29.8066 122.233 29.8705 122.149 26.7725V17.9116H118.233C117.895 17.9116 117.184 18.192 116.883 18.3712C115.803 19.0135 115.585 20.0923 115.526 21.2881V29.6824H113.012V20.8658C113.094 19.1412 113.728 17.6118 115.136 16.6022C117.22 15.1083 119.747 15.621 122.149 15.5323V12.3013H124.624V15.5306H130.618C130.634 13.7704 130.386 11.5916 132.198 10.6512C133.486 9.98227 135.051 10.142 136.445 10.2182L136.447 10.22Z" fill="black"/>
<path d="M78.9294 17.443L79.5562 16.6552C81.6533 14.5633 85.9515 14.9572 87.1886 17.8263C88.0636 16.4281 89.4216 15.5321 91.0656 15.3618C94.3316 15.0264 96.571 16.9905 96.6642 20.3103V29.6822H94.1459V20.8639C93.9609 16.201 88.0778 16.6038 87.8139 21.2046V29.6839H85.2999V20.8657C85.1114 16.2116 79.2332 16.5878 78.9679 21.2063V29.6857H76.4531V15.5303H78.9273V17.443H78.9294Z" fill="black"/>
<path d="M73.7765 16.0414H71.1769C70.9393 13.9833 69.1972 12.7945 67.2596 12.6827C65.1087 12.5585 62.1873 13.7473 62.8565 16.4247C63.1326 17.5336 64.4098 18.011 65.3847 18.2824C68.418 19.1288 73.5253 19.5032 74.0653 23.5486C74.8407 29.3434 67.8973 31.0148 63.6218 29.418C61.242 28.529 59.6905 26.3449 59.5664 23.7774H62.2083C62.4895 26.9286 65.4896 28.0482 68.2537 27.5887C69.4925 27.3829 70.8711 26.7423 71.3062 25.4559C72.5013 21.934 66.8769 21.4726 64.7557 20.8747C62.6922 20.2909 60.5833 19.1713 60.2076 16.8168C59.7307 13.8342 61.6596 11.5596 64.3556 10.7203C68.39 9.46407 73.4919 11.2632 73.7786 16.0432L73.7765 16.0414Z" fill="black"/>
<path d="M108.32 29.6821V27.5991C107.71 28.5022 106.904 29.2278 105.879 29.6076C102.694 30.7893 98.2256 29.1498 98.7677 25.1186C99.0245 23.2094 100.289 22.498 101.927 21.9053C103.905 21.1885 106.022 20.988 108.083 20.6243L108.147 20.5622C108.161 19.8152 108.073 18.9689 107.587 18.3798C106.655 17.246 104.499 17.1821 103.261 17.7783C102.411 18.1881 101.77 19.0434 101.656 19.9962H99.1817C99.3809 17.6363 101.312 15.9897 103.499 15.5125C105.451 15.0866 108.288 15.3617 109.618 17.0437C110.57 18.2485 110.639 19.7229 110.628 21.208C110.612 23.1687 110.542 25.1558 110.584 27.1129C110.602 27.9415 110.624 28.7701 110.693 29.5969L110.647 29.6838H108.32V29.6821ZM108.152 22.67C106.999 22.7871 105.84 22.9522 104.706 23.1935C103.491 23.4525 101.41 23.8322 101.24 25.3723C100.945 28.0479 104.651 28.3248 106.363 27.2939C108.075 26.263 108.24 24.5313 108.152 22.67Z" fill="black"/>
<path d="M140.722 15.5303V29.6821H138.27L138.207 29.6183V15.5303H140.722Z" fill="black"/>
<path d="M139.158 10.0176C140.414 9.8455 141.422 10.9278 140.949 12.1734C140.318 13.8306 137.73 13.2966 137.869 11.4317C137.919 10.7593 138.494 10.1099 139.156 10.0194L139.158 10.0176Z" fill="black"/>
</g>
</svg>
