<svg width="300" height="80" viewBox="0 0 300 80" fill="none" xmlns="http://www.w3.org/2000/svg">
<path d="M0 52.5666C0.391559 58.8968 4.82922 63.3344 13.3782 63.3344C20.9484 63.3344 26.2344 59.4188 26.2344 53.5455C26.2344 48.0636 22.7104 45.1269 17.2286 44.0175L12.0731 42.9734C9.00584 42.386 7.50487 40.9503 7.50487 38.7968C7.50487 36.4474 9.85422 34.6201 13.4435 34.6201H13.9656C17.6854 34.6201 20.0347 37.0347 20.361 40.1672H26.5607C26.5607 33.837 22.0578 29.3993 13.6393 29.3993C6.98279 29.3993 1.30519 33.1192 1.30519 39.4494C1.30519 44.6701 5.09026 47.6721 10.8331 48.7815L15.5971 49.6951C18.7948 50.2825 20.0347 51.7182 20.0347 53.8718C20.0347 56.4821 17.4243 58.1136 13.9656 58.1136H13.4435C9.46266 58.1136 6.52597 56.1558 6.19968 52.5666H0Z" fill="#15171A"/>
<path d="M34.477 55.5033C34.477 60.0062 37.1527 62.6818 41.6556 62.6818H49.4868V57.1347H43.2871C41.3946 57.1347 40.6767 56.4169 40.6767 54.5243V35.4032H48.5079V30.052H40.6767V19.4799H34.477V30.052H27.2985V35.4032H34.477V55.5033Z" fill="#15171A"/>
<path d="M78.1858 62.6818C77.99 61.1808 77.8595 58.7662 77.8595 55.5033V41.7987C77.8595 35.0769 73.0302 29.3993 64.6117 29.3993C57.2374 29.3993 51.8208 33.576 51.4293 39.5146H57.6289C57.9552 36.3821 60.7614 34.6201 64.3507 34.6201H64.8728C69.0494 34.6201 71.6598 37.2958 71.6598 41.7987V42.8429L62.6539 43.5607C59.3909 43.8218 56.5848 44.7354 54.2354 46.3016C51.9513 47.8679 50.7767 50.3477 50.7767 53.676C50.7767 59.1578 55.4101 63.3344 61.5445 63.3344C66.5695 63.3344 70.6809 60.3977 71.9861 57.461C71.9861 59.8756 72.1166 61.5724 72.3124 62.6818H78.1858ZM71.6598 50.9351C71.6598 54.7201 66.8306 58.1136 62.7845 58.1136H62.2624C59.2604 58.1136 56.9763 56.0253 56.9763 53.4149C56.9763 50.4782 59.5867 48.5857 63.5023 48.2594L71.6598 47.6721V50.9351Z" fill="#15171A"/>
<path d="M84.0816 62.6818H90.2812V44.4091C90.2812 38.3399 94.4579 34.6201 99.1566 34.6201H99.6786C104.116 34.6201 106.27 37.361 106.27 42.125V62.6818H112.47V40.8198C112.47 33.9675 108.097 29.3993 100.723 29.3993C95.7631 29.3993 92.4348 31.4224 90.2812 34.6201V30.052H84.0816V62.6818Z" fill="#15171A"/>
<path d="M174.61 30.052L165.147 56.6127L155.685 30.052H149.289L161.362 62.6818H168.867L180.94 30.052H174.61Z" fill="#15171A"/>
<path d="M183.59 62.6818H189.79V30.052H183.59V62.6818ZM183.264 24.1786H190.116V17H183.264V24.1786Z" fill="#15171A"/>
<path d="M193.778 52.5666C194.17 58.8968 198.607 63.3344 207.156 63.3344C214.726 63.3344 220.013 59.4188 220.013 53.5455C220.013 48.0636 216.488 45.1269 211.007 44.0175L205.851 42.9734C202.784 42.386 201.283 40.9503 201.283 38.7968C201.283 36.4474 203.632 34.6201 207.222 34.6201H207.744C211.463 34.6201 213.813 37.0347 214.139 40.1672H220.339C220.339 33.837 215.836 29.3993 207.417 29.3993C200.761 29.3993 195.083 33.1192 195.083 39.4494C195.083 44.6701 198.868 47.6721 204.611 48.7815L209.375 49.6951C212.573 50.2825 213.813 51.7182 213.813 53.8718C213.813 56.4821 211.202 58.1136 207.744 58.1136H207.222C203.241 58.1136 200.304 56.1558 199.978 52.5666H193.778Z" fill="#15171A"/>
<path d="M224.862 62.6818H231.061V30.052H224.862V62.6818ZM224.535 24.1786H231.388V17H224.535V24.1786Z" fill="#15171A"/>
<path d="M235.572 46.3669C235.572 56.3516 242.424 63.3344 251.234 63.3344C260.044 63.3344 266.897 56.3516 266.897 46.3669C266.897 36.3821 260.044 29.3993 251.234 29.3993C242.424 29.3993 235.572 36.3821 235.572 46.3669ZM250.973 58.1136C245.622 58.1136 241.772 53.8065 241.772 46.3669C241.772 38.9273 245.622 34.6201 250.973 34.6201H251.495C256.847 34.6201 260.697 38.9273 260.697 46.3669C260.697 53.8065 256.847 58.1136 251.495 58.1136H250.973Z" fill="#15171A"/>
<path d="M271.423 62.6818H277.623V44.4091C277.623 38.3399 281.799 34.6201 286.498 34.6201H287.02C291.458 34.6201 293.611 37.361 293.611 42.125V62.6818H299.811V40.8198C299.811 33.9675 295.439 29.3993 288.064 29.3993C283.104 29.3993 279.776 31.4224 277.623 34.6201V30.052H271.423V62.6818Z" fill="#15171A"/>
<path d="M129.442 62.2873H135.838V49.2354H148.759V43.6883H135.838V30.6364H129.442V43.6883H116.521V49.2354H129.442V62.2873Z" fill="#98E413"/>
</svg>
